<?xml version="1.0" standalone="no"?><!DOCTYPE svg PUBLIC "-//W3C//DTD SVG 1.1//EN" "http://www.w3.org/Graphics/SVG/1.1/DTD/svg11.dtd"><svg t="1712758046810" class="icon" viewBox="0 0 1024 1024" version="1.1" xmlns="http://www.w3.org/2000/svg" p-id="67714" xmlns:xlink="http://www.w3.org/1999/xlink" width="200" height="200"><path d="M0 64C0 28.6 28.6 0 64 0h896c35.4 0 64 28.6 64 64s-28.6 64-64 64v768c35.4 0 64 28.6 64 64s-28.6 64-64 64H608v-96c0-53-43-96-96-96s-96 43-96 96v96H64c-35.4 0-64-28.6-64-64s28.6-64 64-64V128C28.6 128 0 99.4 0 64z m192 160v64c0 17.6 14.4 32 32 32h64c17.6 0 32-14.4 32-32v-64c0-17.6-14.4-32-32-32h-64c-17.6 0-32 14.4-32 32z m288-32c-17.6 0-32 14.4-32 32v64c0 17.6 14.4 32 32 32h64c17.6 0 32-14.4 32-32v-64c0-17.6-14.4-32-32-32h-64z m224 32v64c0 17.6 14.4 32 32 32h64c17.6 0 32-14.4 32-32v-64c0-17.6-14.4-32-32-32h-64c-17.6 0-32 14.4-32 32z m-480 160c-17.6 0-32 14.4-32 32v64c0 17.6 14.4 32 32 32h64c17.6 0 32-14.4 32-32v-64c0-17.6-14.4-32-32-32h-64z m224 32v64c0 17.6 14.4 32 32 32h64c17.6 0 32-14.4 32-32v-64c0-17.6-14.4-32-32-32h-64c-17.6 0-32 14.4-32 32z m288-32c-17.6 0-32 14.4-32 32v64c0 17.6 14.4 32 32 32h64c17.6 0 32-14.4 32-32v-64c0-17.6-14.4-32-32-32h-64z m-80 384c26.6 0 48.6-21.8 42-47.6-21.2-83-96.4-144.4-186-144.4s-165 61.4-186 144.4c-6.6 25.6 15.6 47.6 42 47.6h288z" p-id="67715"></path></svg>