<?xml version="1.0" standalone="no"?><!DOCTYPE svg PUBLIC "-//W3C//DTD SVG 1.1//EN" "http://www.w3.org/Graphics/SVG/1.1/DTD/svg11.dtd"><svg t="1712758080193" class="icon" viewBox="0 0 1024 1024" version="1.1" xmlns="http://www.w3.org/2000/svg" p-id="67880" xmlns:xlink="http://www.w3.org/1999/xlink" width="200" height="200"><path d="M736.818837 153.228847l0-89.436962-447.184809 0 0 89.436962-134.155443 0 0 804.932656 268.310885 0 0-89.436962 178.873923 0 0 89.436962 268.310885 0 0-804.932656L736.818837 153.228847zM468.507952 734.569098l-89.436962 0 0-89.436962 89.436962 0L468.507952 734.569098zM468.507952 555.695175l-89.436962 0 0-89.436962 89.436962 0L468.507952 555.695175zM468.507952 376.821251l-89.436962 0 0-89.436962 89.436962 0L468.507952 376.821251zM647.381875 734.569098l-89.435938 0 0-89.436962 89.435938 0L647.381875 734.569098zM647.381875 555.695175l-89.435938 0 0-89.436962 89.435938 0L647.381875 555.695175zM647.381875 376.821251l-89.435938 0 0-89.436962 89.435938 0L647.381875 376.821251z" p-id="67881"></path></svg>