<?xml version="1.0" standalone="no"?><!DOCTYPE svg PUBLIC "-//W3C//DTD SVG 1.1//EN" "http://www.w3.org/Graphics/SVG/1.1/DTD/svg11.dtd"><svg t="1712758285044" class="icon" viewBox="0 0 1024 1024" version="1.1" xmlns="http://www.w3.org/2000/svg" p-id="97171" xmlns:xlink="http://www.w3.org/1999/xlink" width="200" height="200"><path d="M716.8 375.466667c-6.826667 0-13.653333 3.413333-17.066667 10.24s0 13.653333 3.413334 17.066666l58.026666 58.026667-20.48 98.986667c0 6.826667 0 13.653333 6.826667 17.066666 6.826667 3.413333 13.653333 3.413333 20.48 0l75.093333-58.026666 75.093334 58.026666c3.413333 3.413333 6.826667 3.413333 13.653333 3.413334 10.24 0 17.066667-6.826667 17.066667-17.066667 0-3.413333 0-6.826667-3.413334-6.826667l-17.066666-92.16 58.026666-58.026666c3.413333-3.413333 6.826667-13.653333 3.413334-17.066667s-10.24-13.653333-17.066667-13.653333h-75.093333l-37.546667-75.093334c-6.826667-10.24-23.893333-10.24-30.72 0L791.893333 375.466667H716.8zM78.506667 460.8l-20.48 98.986667c0 6.826667 0 13.653333 6.826666 17.066666 6.826667 3.413333 13.653333 3.413333 20.48 0l75.093334-58.026666 75.093333 58.026666c3.413333 3.413333 6.826667 3.413333 13.653333 3.413334 10.24 0 17.066667-6.826667 17.066667-17.066667 0-3.413333 0-6.826667-3.413333-6.826667l-17.066667-92.16 58.026667-58.026666c3.413333-6.826667 3.413333-13.653333 3.413333-20.48s-10.24-10.24-17.066667-10.24H215.04L177.493333 300.373333c-6.826667-13.653333-23.893333-13.653333-30.72 0L109.226667 375.466667H34.133333c-6.826667 0-13.653333 3.413333-17.066666 10.24s0 13.653333 3.413333 17.066666l58.026667 58.026667zM249.173333 204.8l-17.066666 98.986667c0 6.826667 0 13.653333 6.826666 17.066666 6.826667 3.413333 13.653333 3.413333 20.48 0l75.093334-58.026666L409.6 320.853333c3.413333 3.413333 6.826667 3.413333 10.24 3.413334 10.24 0 17.066667-6.826667 17.066667-17.066667 0-3.413333 0-6.826667-3.413334-6.826667L416.426667 204.8l58.026666-58.026667c3.413333-3.413333 3.413333-10.24 3.413334-17.066666s-10.24-10.24-17.066667-10.24h-75.093333l-37.546667-75.093334c-6.826667-10.24-23.893333-10.24-30.72 0L279.893333 119.466667H204.8c-6.826667 0-13.653333 3.413333-17.066667 10.24s0 13.653333 3.413334 17.066666L249.173333 204.8zM590.506667 204.8l-20.48 98.986667c0 6.826667 0 13.653333 6.826666 17.066666 6.826667 3.413333 13.653333 3.413333 20.48 0l75.093334-58.026666 75.093333 58.026666c3.413333 3.413333 6.826667 3.413333 10.24 3.413334 10.24 0 17.066667-6.826667 17.066667-17.066667 0-3.413333 0-6.826667-3.413334-6.826667L757.76 204.8l58.026667-58.026667c3.413333-3.413333 3.413333-10.24 3.413333-17.066666s-10.24-10.24-17.066667-10.24h-75.093333l-37.546667-75.093334c-6.826667-10.24-23.893333-10.24-30.72 0l-37.546666 75.093334H546.133333c-6.826667 0-13.653333 3.413333-17.066666 10.24s0 13.653333 3.413333 17.066666L590.506667 204.8zM375.466667 375.466667c-6.826667 0-13.653333 3.413333-17.066667 10.24s0 13.653333 3.413333 17.066666l58.026667 58.026667-20.48 98.986667c0 6.826667 0 13.653333 6.826667 17.066666 6.826667 3.413333 13.653333 3.413333 20.48 0l75.093333-58.026666 75.093333 58.026666c3.413333 3.413333 6.826667 3.413333 13.653334 3.413334 10.24 0 17.066667-6.826667 17.066666-17.066667 0-3.413333 0-6.826667-3.413333-6.826667l-17.066667-92.16 58.026667-58.026666c3.413333-3.413333 6.826667-13.653333 3.413333-17.066667s-10.24-13.653333-17.066666-13.653333h-75.093334l-37.546666-75.093334c-6.826667-10.24-23.893333-10.24-30.72 0L450.56 375.466667H375.466667zM921.6 648.533333H102.4C54.613333 648.533333 17.066667 686.08 17.066667 733.866667v170.666666C17.066667 952.32 54.613333 989.866667 102.4 989.866667h819.2c47.786667 0 85.333333-37.546667 85.333333-85.333334v-170.666666c0-47.786667-37.546667-85.333333-85.333333-85.333334zM221.866667 904.533333c0 10.24-6.826667 17.066667-17.066667 17.066667s-17.066667-6.826667-17.066667-17.066667v-68.266666h-68.266666v68.266666c0 10.24-6.826667 17.066667-17.066667 17.066667s-17.066667-6.826667-17.066667-17.066667v-170.666666c0-10.24 6.826667-17.066667 17.066667-17.066667s17.066667 6.826667 17.066667 17.066667v68.266666h68.266666v-68.266666c0-10.24 6.826667-17.066667 17.066667-17.066667s17.066667 6.826667 17.066667 17.066667v170.666666z m170.666666-51.2c0 37.546667-30.72 68.266667-68.266666 68.266667s-68.266667-30.72-68.266667-68.266667v-68.266666c0-37.546667 30.72-68.266667 68.266667-68.266667s68.266667 30.72 68.266666 68.266667v68.266666z m187.733334-102.4h-51.2v153.6c0 10.24-6.826667 17.066667-17.066667 17.066667s-17.066667-6.826667-17.066667-17.066667V750.933333H443.733333c-10.24 0-17.066667-6.826667-17.066666-17.066666s6.826667-17.066667 17.066666-17.066667h136.533334c10.24 0 17.066667 6.826667 17.066666 17.066667s-6.826667 17.066667-17.066666 17.066666z m119.466666 51.2c10.24 0 17.066667 6.826667 17.066667 17.066667s-6.826667 17.066667-17.066667 17.066667h-34.133333V887.466667H750.933333c10.24 0 17.066667 6.826667 17.066667 17.066666s-6.826667 17.066667-17.066667 17.066667h-102.4c-10.24 0-17.066667-6.826667-17.066666-17.066667v-170.666666c0-10.24 6.826667-17.066667 17.066666-17.066667h102.4c10.24 0 17.066667 6.826667 17.066667 17.066667s-6.826667 17.066667-17.066667 17.066666h-85.333333v51.2h34.133333zM921.6 921.6h-102.4c-10.24 0-17.066667-6.826667-17.066667-17.066667v-170.666666c0-10.24 6.826667-17.066667 17.066667-17.066667s17.066667 6.826667 17.066667 17.066667V887.466667H921.6c10.24 0 17.066667 6.826667 17.066667 17.066666s-6.826667 17.066667-17.066667 17.066667z" fill="" p-id="97172"></path><path d="M324.266667 750.933333c-20.48 0-34.133333 13.653333-34.133334 34.133334v68.266666c0 20.48 13.653333 34.133333 34.133334 34.133334s34.133333-13.653333 34.133333-34.133334v-68.266666c0-20.48-13.653333-34.133333-34.133333-34.133334z" fill="" p-id="97173"></path></svg>