<?xml version="1.0" standalone="no"?><!DOCTYPE svg PUBLIC "-//W3C//DTD SVG 1.1//EN" "http://www.w3.org/Graphics/SVG/1.1/DTD/svg11.dtd"><svg t="1712758425387" class="icon" viewBox="0 0 1024 1024" version="1.1" xmlns="http://www.w3.org/2000/svg" p-id="114659" xmlns:xlink="http://www.w3.org/1999/xlink" width="200" height="200"><path d="M853.333333 955.733333H170.666667a17.066667 17.066667 0 1 1 0-34.133333h71.168a806.741333 806.741333 0 0 1-4.625067-87.04c0-144.520533 36.9152-275.831467 109.806933-390.826667H256a17.066667 17.066667 0 0 1 0-34.133333h113.9712a771.720533 771.720533 0 0 1 84.736-99.959467 787.848533 787.848533 0 0 1 46.165333-42.683733l0.085334-0.085333c50.858667-43.758933 106.24-79.786667 164.625066-107.144534V85.333333a17.066667 17.066667 0 1 1 34.133334 0v238.933334h153.6a17.066667 17.066667 0 1 1 0 34.133333h-153.6v563.2h153.6A17.066667 17.066667 0 1 1 853.333333 955.733333z m-324.266666-34.133333h136.533333v-51.2h-136.533333v51.2z m-252.8768 0H494.933333V318.139733c-5.410133 5.102933-10.786133 10.325333-16.0768 15.650134a732.689067 732.689067 0 0 0-85.896533 102.5536l-0.1024 0.1536C312.2176 551.901867 271.36 685.841067 271.36 834.56c0 29.678933 1.621333 58.897067 4.829867 87.04zM529.066667 836.266667h136.533333v-51.2h-136.533333v51.2z m0-85.333334h136.533333v-51.2h-136.533333v51.2z m0-85.333333h136.533333v-51.2h-136.533333v51.2z m0-85.333333h136.533333v-51.2h-136.533333v51.2z m0-85.333334h136.533333v-51.2h-136.533333v51.2z m0-85.333333h136.533333v-51.2h-136.533333v51.2z m0-85.333333h136.533333v-126.634667a691.319467 691.319467 0 0 0-136.533333 90.146133V324.266667z" p-id="114660"></path></svg>