<?xml version="1.0" standalone="no"?><!DOCTYPE svg PUBLIC "-//W3C//DTD SVG 1.1//EN" "http://www.w3.org/Graphics/SVG/1.1/DTD/svg11.dtd"><svg t="1713704556718" class="icon" viewBox="0 0 1121 1024" version="1.1" xmlns="http://www.w3.org/2000/svg" p-id="10800" xmlns:xlink="http://www.w3.org/1999/xlink" width="218.9453125" height="200"><path d="M610.74575 1021.27a461.824 461.824 0 0 1-99.474 0C279.65275 996.253 99.47775 797.988 99.47775 557.006c0-15.018 0.731-29.988 2.243-44.763a466.895 466.895 0 0 0 205.141 344.99c0.195 0 0.195 0.244 0.488 0.244a457.387 457.387 0 0 0 303.396 163.791" fill="#665BFF" p-id="10801"></path><path d="M1121.52675 557.007c0 257.95-206.36 466.993-461.19 466.993-16.774 0-33.304-0.975-49.347-2.78 231.327-25.21 411.063-223.231 411.063-464.213 0-15.018-0.78-29.988-2.243-44.763A468.212 468.212 0 0 0 914.14175 167.01a467.675 467.675 0 0 1 207.384 389.997" fill="#DD8DFC" p-id="10802"></path><path d="M1022.05275 557.007c0 240.982-179.736 438.955-411.063 464.214h-0.244a407.162 407.162 0 0 1-49.883-8.241 457.728 457.728 0 0 0 253.074-154.966 467.822 467.822 0 0 0 205.873-345.77c1.463 14.775 2.243 29.745 2.243 44.763" fill="#665BFF" p-id="10803"></path><path d="M511.27175 1021.27a467.53 467.53 0 0 1-49.883 2.73C206.36375 1024 0.00175 815.006 0.00175 557.007a468.602 468.602 0 0 1 207.336-390.29A468.943 468.943 0 0 0 101.72175 512.244c-1.512 14.775-2.243 29.745-2.243 44.763 0 240.982 180.224 439.247 411.794 464.214" fill="#73A2FF" p-id="10804"></path><path d="M813.93675 858.014a457.874 457.874 0 0 1-253.074 154.966 457.582 457.582 0 0 1-253.513-155.453 453.388 453.388 0 0 0 253.513 76.995 453.486 453.486 0 0 0 253.074-76.556" fill="#665BFF" p-id="10805"></path><path d="M511.27175 92.501c-217.234 23.504-389.071 199.241-409.6 419.743a468.846 468.846 0 0 1 105.716-345.478A454.461 454.461 0 0 1 511.32075 92.5" fill="#3E9DFF" p-id="10806"></path><path d="M1022.05275 467.237c0 15.262-0.731 30.232-2.243 45.007-20.48-220.502-192.073-395.996-408.82-419.743a454.412 454.412 0 0 1 303.202 74.265v0.244a468.212 468.212 0 0 1 107.861 300.227" fill="#665BFF" p-id="10807"></path><path d="M1019.80975 512.244a467.724 467.724 0 0 1-205.873 345.722 453.73 453.73 0 0 1-253.074 76.556c-93.525 0-180.907-28.282-253.513-77.044-0.244 0-0.244-0.244-0.488-0.244a466.895 466.895 0 0 1-205.141-344.99C122.20075 291.742 293.98875 116.004 511.27175 92.5a462.263 462.263 0 0 1 49.59-2.78c16.775 0 33.598 1.025 49.884 2.78h0.244c216.796 23.747 388.34 199.241 408.82 419.743" fill="#1A57EC" p-id="10808"></path><path d="M914.14175 166.766A454.266 454.266 0 0 0 610.99075 92.5h-0.244a462.994 462.994 0 0 0-99.474 0 454.558 454.558 0 0 0-303.933 74.265C292.08675 64.707 418.96575 0 560.86275 0c141.702 0 268.63 64.756 353.28 166.766" fill="#A7F7FF" p-id="10809"></path><path d="M415.84475 610.597c-27.892 0-50.566-22.919-50.566-51.2v-94.599c0-28.281 22.674-51.2 50.566-51.2 27.94 0 50.566 22.919 50.566 51.2v94.599c0 28.281-22.625 51.2-50.566 51.2m289.84 0c-27.94 0-50.614-22.919-50.614-51.2v-94.599c0-28.281 22.674-51.2 50.615-51.2 27.892 0 50.566 22.919 50.566 51.2v94.599c0 28.281-22.674 51.2-50.566 51.2" fill="#FFFFFF" p-id="10810"></path></svg>