<?xml version="1.0" standalone="no"?><!DOCTYPE svg PUBLIC "-//W3C//DTD SVG 1.1//EN" "http://www.w3.org/Graphics/SVG/1.1/DTD/svg11.dtd"><svg t="1712923655999" class="icon" viewBox="0 0 1024 1024" version="1.1" xmlns="http://www.w3.org/2000/svg" p-id="4325" xmlns:xlink="http://www.w3.org/1999/xlink" width="200" height="200"><path d="M140.721231 640.748308c-8.940308 38.951385 14.966154 131.780923 164.627692 131.780923 89.757538 0 179.712-56.832 251.431385-149.700923-101.769846-50.924308-185.659077-74.830769-281.442462-74.83077-83.731692 2.953846-125.676308 53.799385-134.616615 92.75077m503.059692 26.939077c-89.796923 107.795692-182.626462 173.686154-323.387077 173.686153-140.721231 0-233.550769-86.843077-221.538461-191.566769 5.986462-68.844308 53.917538-182.626462 260.52923-164.627692 107.756308 8.940308 158.72 29.892923 248.516923 59.864615 23.985231-41.865846 41.865846-89.757538 56.832-137.64923H269.508923v-38.951385h194.56V299.401846H227.603692V254.424615h236.544V152.654769s2.914462-14.926769 20.952616-14.926769h98.816V254.424615h251.470769v41.865847h-254.503385v68.883692h206.572308a731.884308 731.884308 0 0 1-83.771077 209.604923c50.924308 17.998769 257.496615 80.817231 317.361231 98.816V149.700923C1021.006769 65.890462 952.201846 0 871.305846 0H149.779692C65.890462 0 0 68.844308 0 149.700923v724.598154C0 958.109538 68.844308 1024 149.661538 1024H874.338462c83.810462 0 149.661538-68.844308 149.661538-149.700923v-35.997539c-50.924308-23.867077-278.449231-122.722462-380.179692-170.614153" fill="#108EE9" p-id="4326"></path></svg>