<?xml version="1.0" standalone="no"?><!DOCTYPE svg PUBLIC "-//W3C//DTD SVG 1.1//EN" "http://www.w3.org/Graphics/SVG/1.1/DTD/svg11.dtd"><svg t="1712554816146" class="icon" viewBox="0 0 1024 1024" version="1.1" xmlns="http://www.w3.org/2000/svg" p-id="15977" xmlns:xlink="http://www.w3.org/1999/xlink" width="200" height="200"><path d="M512 0C229.184 0 0 229.184 0 512c0 282.752 229.184 512 512 512s512-229.248 512-512c0-282.816-229.216-512-512-512z m96 704c28.672 30.656 46.688 60 16 96-31.424 36.864-73.76 22.208-96 0L288 560c-32-29.312-26.688-64.672 0-96L528 224c22.24-22.176 64.288-32.288 96 0 36 36.672 6.24 73.792-16 96l-192 192 192 192z" p-id="15978"></path></svg>