<?xml version="1.0" standalone="no"?><!DOCTYPE svg PUBLIC "-//W3C//DTD SVG 1.1//EN" "http://www.w3.org/Graphics/SVG/1.1/DTD/svg11.dtd"><svg t="1712554537058" class="icon" viewBox="0 0 1024 1024" version="1.1" xmlns="http://www.w3.org/2000/svg" p-id="10705" xmlns:xlink="http://www.w3.org/1999/xlink" width="200" height="200"><path d="M902.439922 1023.929392 849.180927 1023.929392 849.180927 0.069585l53.258994 0c29.395494 0 53.226249 23.713075 53.226249 52.958142l0 917.909753C955.665147 1000.199944 931.834392 1023.929392 902.439922 1023.929392zM174.817026 970.93748l0-52.92642 88.719624 0c58.823734 0 106.48422-47.459918 106.48422-105.917308 0-58.490136-47.659463-105.933681-106.48422-105.933681l-88.719624 0 0-88.25402 88.719624 0c58.823734 0 106.48422-47.426149 106.48422-105.917308s-47.659463-105.916285-106.48422-105.916285l-88.719624 0 0-88.252996 88.719624 0c58.823734 0 106.48422-47.426149 106.48422-105.916285 0-58.491159-47.659463-105.917308-106.48422-105.917308l-88.719624 0L174.817026 53.028751c0-29.245068 23.829731-52.958142 53.258994-52.958142l567.847959 0 0 1023.858784L228.07602 1023.929392C198.647781 1023.929392 174.817026 1000.199944 174.817026 970.93748zM316.795645 211.904201c0 29.245068-23.861454 52.941769-53.257971 52.941769L121.559055 264.84597c-29.396517 0-53.225225-23.696702-53.225225-52.941769 0-29.246091 23.829731-52.958142 53.225225-52.958142l141.977595 0C292.933167 158.945035 316.795645 182.65811 316.795645 211.904201zM121.559055 459.032648l141.977595 0c29.396517 0 53.257971 23.713075 53.257971 52.958142 0 29.246091-23.861454 52.958142-53.257971 52.958142L121.559055 564.948933c-29.396517 0-53.225225-23.712051-53.225225-52.958142C68.33383 482.745722 92.162538 459.032648 121.559055 459.032648zM121.559055 759.103888l141.977595 0c29.396517 0 53.257971 23.728424 53.257971 52.990888s-23.861454 52.925397-53.257971 52.925397L121.559055 865.020172c-29.396517 0-53.225225-23.662933-53.225225-52.925397S92.162538 759.103888 121.559055 759.103888z" p-id="10706"></path></svg>