<?xml version="1.0" standalone="no"?><!DOCTYPE svg PUBLIC "-//W3C//DTD SVG 1.1//EN" "http://www.w3.org/Graphics/SVG/1.1/DTD/svg11.dtd"><svg t="1713629440846" class="icon" viewBox="0 0 1024 1024" version="1.1" xmlns="http://www.w3.org/2000/svg" p-id="7081" xmlns:xlink="http://www.w3.org/1999/xlink" width="200" height="200"><path d="M324.1 902.4h-192V377.6h192v524.8z m42.7 0V376.2c75.7-9.8 136.1-70.9 143.3-148.8 1.5-15.9 3.9-28.4 7.8-38 8.2-39.2 42.9-67.8 83.5-67.8 47.1 0 85.3 38.2 85.3 85.3 0 1.9-0.1 3.9-0.2 3.8 0.1 4.1 0.2 9.9 0.2 17.5v128c0 11.8 9.6 21.3 21.3 21.3h119.8c35.3 0 64 28.7 64 64 0 3.7-0.3 7.5-1 11.2l-70.2 396.8c-5.4 30.6-32 52.8-63 52.8H366.8z" fill="#8bb8fa" p-id="7082"></path></svg>