<?xml version="1.0" standalone="no"?><!DOCTYPE svg PUBLIC "-//W3C//DTD SVG 1.1//EN" "http://www.w3.org/Graphics/SVG/1.1/DTD/svg11.dtd"><svg t="1712563770170" class="icon" viewBox="0 0 1024 1024" version="1.1" xmlns="http://www.w3.org/2000/svg" p-id="19575" xmlns:xlink="http://www.w3.org/1999/xlink" width="200" height="200"><path d="M507.733333 827.733333c-72.533333 0-140.8 4.266667-204.8 4.266667-21.333333 0-38.4-17.066667-38.4-38.4v-256c0-21.333333 17.066667-38.4 38.4-38.4h320c8.533333 0 21.333333 4.266667 25.6 12.8 8.533333 8.533333 8.533333 21.333333 12.8 25.6 12.8 106.666667-34.133333 268.8-34.133333 268.8 0 8.533333-4.266667 12.8-4.266667 12.8-4.266667 0-8.533333 4.266667-17.066666 4.266667h-64c-8.533333 4.266667-21.333333 4.266667-34.133334 4.266666z" fill="#F5CB2B" p-id="19576"></path><path d="M285.866667 964.266667v-59.733334h473.6c4.266667 0 12.8-4.266667 12.8-12.8l102.4-422.4c4.266667-21.333333 0-38.4-4.266667-46.933333H512l8.533333-34.133333c8.533333-42.666667 17.066667-81.066667 17.066667-123.733334V213.333333c0-21.333333 0-42.666667-12.8-68.266666-4.266667-8.533333-8.533333-17.066667-21.333333-21.333334-8.533333-4.266667-17.066667-8.533333-25.6-8.533333-4.266667 0-8.533333 0-12.8 4.266667-8.533333 4.266667-8.533333 8.533333-12.8 12.8 0 4.266667-4.266667 12.8-8.533334 29.866666-4.266667 12.8-4.266667 12.8-4.266666 21.333334l-4.266667 17.066666c-4.266667 12.8-4.266667 25.6-8.533333 38.4 0 8.533333-4.266667 17.066667-21.333334 55.466667v21.333333c-4.266667 12.8-4.266667 17.066667-8.533333 29.866667-8.533333 17.066667-17.066667 34.133333-29.866667 55.466667l-8.533333 17.066666-72.533333 4.266667-4.266667-59.733333 42.666667-4.266667c8.533333-12.8 12.8-25.6 17.066666-34.133333 4.266667-12.8 8.533333-17.066667 8.533334-25.6l8.533333-25.6c12.8-34.133333 17.066667-42.666667 17.066667-51.2 8.533333-12.8 8.533333-25.6 12.8-34.133334V170.666667c0-4.266667 0-8.533333 4.266666-17.066667 8.533333-25.6 8.533333-38.4 17.066667-51.2 4.266667-8.533333 12.8-25.6 38.4-34.133333 12.8-4.266667 25.6-8.533333 42.666667-8.533334s34.133333 8.533333 51.2 17.066667c25.6 12.8 34.133333 34.133333 42.666666 42.666667 17.066667 29.866667 25.6 64 21.333334 98.133333v51.2c0 34.133333-4.266667 64-12.8 98.133333h281.6c17.066667 0 38.4 8.533333 46.933333 25.6 17.066667 21.333333 21.333333 59.733333 12.8 93.866667l-102.4 422.4c-8.533333 34.133333-38.4 55.466667-68.266667 55.466667H285.866667z" fill="#6A3906" p-id="19577"></path><path d="M290.133333 964.266667H132.266667c-25.6 0-46.933333-21.333333-46.933334-46.933334V409.6c0-25.6 21.333333-46.933333 46.933334-46.933333h157.866666v601.6z m-145.066666-59.733334h89.6V422.4H145.066667v482.133333z" fill="#6A3906" p-id="19578"></path></svg>