<?xml version="1.0" standalone="no"?><!DOCTYPE svg PUBLIC "-//W3C//DTD SVG 1.1//EN" "http://www.w3.org/Graphics/SVG/1.1/DTD/svg11.dtd"><svg t="1712585118186" class="icon" viewBox="0 0 1024 1024" version="1.1" xmlns="http://www.w3.org/2000/svg" p-id="34737" xmlns:xlink="http://www.w3.org/1999/xlink" width="200" height="200"><path d="M897.8 430.1c-20.4-27.2-50.4-45.7-84-51.6l-169.6-11.7 19.1-203.1c3.7-36-24.5-67.4-60.8-67.4H571c-22 0-42.2 11.8-53.1 30.9L376.5 363.6V865c0 5.2-0.8 10.1-2 14.9l391.2 13.4c60.3-0.5 111.2-44.9 119.9-104.6L923.3 530c5.1-35.4-4-71.3-25.5-99.9z" fill="#FFBA3B" p-id="34738"></path><path d="M210.3 819.5l-12.5-388.4c0-33.1 33.9-61.5 73.2-63.3l103.5-1 2-3.3V357c0-33.7-27.4-61.1-61.1-61.1H163.6c-33.7 0-61.1 27.4-61.1 61.1v507.8c0 33.7 27.4 61.1 61.1 61.1h151.8c28.6 0 52.4-19.7 59.1-46.2l-92.7-3.2c-33-0.9-71.5-24-71.5-57z" fill="#FB536C" p-id="34739"></path><path d="M376.5 363.6l-2 3.3-103.5 1c-39.3 1.8-73.2 30.2-73.2 63.3l12.5 388.4c0 33 38.5 56.1 71.4 57.1l92.7 3.2c1.2-4.8 2-9.7 2-14.9V363.6z" fill="#8F3694" p-id="34740"></path></svg>