<?xml version="1.0" standalone="no"?><!DOCTYPE svg PUBLIC "-//W3C//DTD SVG 1.1//EN" "http://www.w3.org/Graphics/SVG/1.1/DTD/svg11.dtd"><svg t="1712736500731" class="icon" viewBox="0 0 1088 1024" version="1.1" xmlns="http://www.w3.org/2000/svg" p-id="39329" xmlns:xlink="http://www.w3.org/1999/xlink" width="212.5" height="200"><path d="M300.224 896h448c21.312 0 32 10.688 32 32 0 21.312-10.688 32-32 32h-448c-21.312 0-32-10.688-32-32 0-21.312 10.688-32 32-32z" fill="#ffffff" p-id="39330"></path><path d="M812.224 416a288 288 0 1 0-576 0c0 118.144 94.528 272.128 288 456.576 193.472-184.448 288-338.432 288-456.576z m-288 544c-234.688-213.312-352-394.688-352-544a352 352 0 1 1 704 0c0 149.312-117.312 330.688-352 544z" fill="#ffffff" p-id="39331"></path><path d="M524.224 512a96 96 0 1 0 0-192 96 96 0 0 0 0 192z m0 64a160 160 0 1 1 0-320 160 160 0 0 1 0 320z" fill="#ffffff" p-id="39332"></path></svg>