<?xml version="1.0" encoding="UTF-8"?>
<svg xmlns="http://www.w3.org/2000/svg" id="Layer_1" data-name="Layer 1" viewBox="0 0 24 24">
  <path d="m0,11.5c0-.276.224-.5.5-.5h4.156c.234,0,.436-.161.48-.383.15-.749.431-1.444.796-2.081L1.749,6.101c-.239-.139-.32-.444-.181-.684.139-.238.445-.321.684-.18l4.247,2.472c.503-.643,1.109-1.191,1.799-1.624L5.776,1.751c-.139-.238-.058-.544.181-.684.237-.14.544-.058.684.182l2.543,4.372c.722-.32,1.501-.517,2.317-.577V.5c0-.276.224-.5.5-.5s.5.224.5.5v4.544c.821.06,1.603.259,2.329.582l2.546-4.377c.139-.241.445-.32.684-.182.239.14.32.445.182.684l-2.525,4.343c.687.433,1.29.98,1.791,1.622l4.258-2.479c.236-.139.544-.059.684.181s.059.545-.18.685l-4.196,2.443c.363.635.642,1.327.791,2.073.044.222.246.383.48.383h4.156c.276,0,.5.224.5.5s-.224.5-.5.5h-4.156c-.709,0-1.323-.499-1.461-1.187-.559-2.789-3.032-4.813-5.883-4.813s-5.324,2.024-5.883,4.814c-.138.687-.752,1.186-1.461,1.186H.5c-.276,0-.5-.224-.5-.5Zm23.174,10.854c-.484.416-1.111.646-1.765.646-1.168,0-2.315-.72-2.668-1.674-.145-.393-.793-.393-.938,0-.353.954-1.499,1.674-2.667,1.674s-2.315-.72-2.668-1.674c-.145-.393-.793-.393-.938,0-.353.954-1.5,1.674-2.667,1.674s-2.315-.72-2.667-1.673c-.073-.196-.26-.327-.469-.327s-.396.13-.469.326c-.353.954-1.5,1.674-2.667,1.674-.654,0-1.281-.229-1.766-.646-.208-.18-.524-.156-.705.053-.18.21-.156.525.054.705.666.572,1.524.888,2.417.888,1.239,0,2.434-.594,3.136-1.494.703.9,1.896,1.494,3.136,1.494s2.434-.594,3.136-1.494c.703.9,1.897,1.494,3.137,1.494s2.433-.594,3.136-1.494c.703.9,1.897,1.494,3.137,1.494.893,0,1.751-.315,2.417-.888.209-.18.233-.495.053-.705-.179-.209-.494-.232-.705-.053Zm0-6c-.484.416-1.111.646-1.765.646-1.168,0-2.315-.72-2.668-1.674-.145-.393-.793-.393-.938,0-.353.954-1.499,1.674-2.667,1.674s-2.315-.72-2.668-1.674c-.145-.393-.793-.393-.938,0-.353.954-1.5,1.674-2.667,1.674s-2.315-.72-2.667-1.673c-.073-.196-.26-.327-.469-.327s-.396.13-.469.326c-.353.954-1.5,1.674-2.667,1.674-.654,0-1.281-.229-1.766-.646-.208-.179-.524-.157-.705.053-.18.21-.156.525.054.705.666.572,1.524.888,2.417.888,1.239,0,2.434-.594,3.136-1.494.703.9,1.896,1.494,3.136,1.494s2.434-.594,3.136-1.494c.703.9,1.897,1.494,3.137,1.494s2.433-.594,3.136-1.494c.703.9,1.897,1.494,3.137,1.494.893,0,1.751-.315,2.417-.888.209-.18.233-.495.053-.705-.179-.209-.494-.231-.705-.053Z"/>
</svg>
