<?xml version="1.0" standalone="no"?><!DOCTYPE svg PUBLIC "-//W3C//DTD SVG 1.1//EN" "http://www.w3.org/Graphics/SVG/1.1/DTD/svg11.dtd"><svg t="1712554283973" class="icon" viewBox="0 0 1024 1024" version="1.1" xmlns="http://www.w3.org/2000/svg" p-id="2787" xmlns:xlink="http://www.w3.org/1999/xlink" width="200" height="200"><path d="M53.333333 938.666667a32 32 0 0 1 32-32h853.333334a32 32 0 0 1 0 64H85.333333a32 32 0 0 1-32-32z" p-id="2788"></path><path d="M422.528 150.826667a32 32 0 0 1 39.082667-22.272l329.685333 88.32a32 32 0 0 1 22.613333 39.253333l-185.685333 690.858667a32 32 0 0 1-30.890667 23.68H234.666667a32 32 0 0 1-30.805334-40.661334L422.528 150.826667z m53.034667 47.744L276.906667 906.666667h295.936l171.008-636.245334-268.245334-71.850666z" p-id="2789"></path><path d="M381.184 140.117333a32 32 0 0 1 39.210667-22.613333l412.16 110.421333a32 32 0 1 1-16.64 61.866667l-412.074667-110.506667a32 32 0 0 1-22.613333-39.168zM314.922667 387.413333a32 32 0 0 1 39.210666-22.613333l412.16 110.421333a32 32 0 0 1-16.64 61.824L337.621333 426.581333a32 32 0 0 1-22.613333-39.168z" p-id="2790"></path><path d="M573.994667 333.226667a32 32 0 0 1 22.613333 39.168l-22.058667 82.432a32 32 0 0 1-61.866666-16.554667l22.101333-82.432a32 32 0 0 1 39.210667-22.613333zM248.704 634.666667a32 32 0 0 1 39.168-22.613334l412.16 110.421334a32 32 0 1 1-16.597333 61.866666l-412.16-110.464a32 32 0 0 1-22.613334-39.210666z" p-id="2791"></path><path d="M509.994667 567.893333a32 32 0 0 1 22.613333 39.168l-22.058667 82.432a32 32 0 0 1-61.866666-16.554666l22.101333-82.432a32 32 0 0 1 39.210667-22.613334zM559.872 132.778667l-5.546667 20.608 144.256 38.656 5.546667-20.608-144.256-38.656z m-59.093333-26.88a53.333333 53.333333 0 0 1 65.322666-37.674667l164.864 44.16a53.333333 53.333333 0 0 1 37.717334 65.28l-11.050667 41.258667a53.333333 53.333333 0 0 1-65.28 37.717333l-164.864-44.202667a53.333333 53.333333 0 0 1-37.717333-65.28l11.008-41.258666zM445.994667 802.56a32 32 0 0 1 22.613333 39.168l-22.058667 82.432a32 32 0 1 1-61.866666-16.554667l22.101333-82.432a32 32 0 0 1 39.210667-22.613333z" p-id="2792"></path></svg>