<?xml version="1.0" standalone="no"?><!DOCTYPE svg PUBLIC "-//W3C//DTD SVG 1.1//EN" "http://www.w3.org/Graphics/SVG/1.1/DTD/svg11.dtd"><svg t="1714124476242" class="icon" viewBox="0 0 1024 1024" version="1.1" xmlns="http://www.w3.org/2000/svg" p-id="35945" xmlns:xlink="http://www.w3.org/1999/xlink" width="200" height="200"><path d="M440.889 184.889a99.556 99.556 0 1 0 199.111 0 99.556 99.556 0 1 0-199.111 0zM793.884 885.76L611.556 612.124V503.182l63.146 52.622a56.889 56.889 0 0 0 72.818-87.324L588.516 335.644a85.333 85.333 0 0 0-77.938-16.497L339.91 368.07a85.333 85.333 0 0 0-56.889 50.347L231.538 547.84a56.889 56.889 0 1 0 105.529 42.382l46.649-116.338 42.95-12.515v254.578L272.783 870.116a56.889 56.889 0 1 0 80.498 80.497l178.916-178.915h49.208l118.33 177.209a56.889 56.889 0 0 0 94.72-63.147z" p-id="35946"></path></svg>