<?xml version="1.0" standalone="no"?><!DOCTYPE svg PUBLIC "-//W3C//DTD SVG 1.1//EN" "http://www.w3.org/Graphics/SVG/1.1/DTD/svg11.dtd"><svg t="1713601536761" class="icon" viewBox="0 0 1024 1024" version="1.1" xmlns="http://www.w3.org/2000/svg" p-id="4653" xmlns:xlink="http://www.w3.org/1999/xlink" width="200" height="200"><path d="M512 10.24C234.88512 10.24 10.24 234.88512 10.24 512S234.88512 1013.76 512 1013.76 1013.76 789.11488 1013.76 512 789.11488 10.24 512 10.24z m0 20.48c265.80992 0 481.28 215.47008 481.28 481.28S777.80992 993.28 512 993.28 30.72 777.80992 30.72 512 246.19008 30.72 512 30.72z" fill="#FFC568" p-id="4654"></path><path d="M675.84 348.16a40.96 40.96 0 0 1 40.96 40.96v81.92a40.96 40.96 0 1 0 0 81.92v81.92a40.96 40.96 0 0 1-40.96 40.96H348.16a40.96 40.96 0 0 1-40.96-40.96v-81.92a40.96 40.96 0 1 0 0-81.92v-81.92a40.96 40.96 0 0 1 40.96-40.96h327.68z m-122.88 204.8h-143.36v40.96h143.36v-40.96z m61.44-102.4H409.6v40.96h204.8v-40.96z" fill="#FFC568" p-id="4655"></path></svg>