<?xml version="1.0" standalone="no"?><!DOCTYPE svg PUBLIC "-//W3C//DTD SVG 1.1//EN" "http://www.w3.org/Graphics/SVG/1.1/DTD/svg11.dtd"><svg t="1713601571602" class="icon" viewBox="0 0 1024 1024" version="1.1" xmlns="http://www.w3.org/2000/svg" p-id="5684" xmlns:xlink="http://www.w3.org/1999/xlink" width="200" height="200"><path d="M836.152889 224.009481a75.851852 75.851852 0 0 1 75.851852 75.851852v116.129186a96.009481 96.009481 0 0 0 0 192v116.167111a75.851852 75.851852 0 0 1-75.851852 75.851851H187.847111a75.851852 75.851852 0 0 1-75.851852-75.851851v-116.167111a96.009481 96.009481 0 0 0 0-191.981038v-116.148148a75.851852 75.851852 0 0 1 75.851852-75.851852h648.305778z m-383.469037 138.733038a24.007111 24.007111 0 0 0-33.943704 33.943703l51.313778 51.313778h-46.061037a24.007111 24.007111 0 1 0 0 47.995259h64v32.009482h-64a24.007111 24.007111 0 1 0 0 47.995259h64v80.004741a24.007111 24.007111 0 1 0 48.014222 0l-0.018963-80.023704 64.018963 0.018963a24.007111 24.007111 0 1 0 0-47.995259h-64.018963v-32.009482h64.018963a24.007111 24.007111 0 1 0 0-47.995259h-46.08l51.332741-51.313778 1.744592-1.953185a24.007111 24.007111 0 0 0-35.688296-31.990518l-56.566518 56.566518-1.744593 1.953185-0.986074 1.365334a24.139852 24.139852 0 0 0-2.768593-3.318519z" fill="#FD6112" p-id="5685"></path></svg>