<?xml version="1.0" standalone="no"?><!DOCTYPE svg PUBLIC "-//W3C//DTD SVG 1.1//EN" "http://www.w3.org/Graphics/SVG/1.1/DTD/svg11.dtd"><svg t="1713633266899" class="icon" viewBox="0 0 1260 1024" version="1.1" xmlns="http://www.w3.org/2000/svg" p-id="17571" xmlns:xlink="http://www.w3.org/1999/xlink" width="246.09375" height="200"><path d="M463.044923 642.087385c0-187.392 175.655385-339.574154 398.532923-339.574154h13.272616C835.623385 128.708923 648.270769 0 436.184615 0 196.332308 0 0 163.603692 0 370.451692c0 119.729231 65.457231 218.230154 174.395077 294.47877L130.875077 796.750769l152.497231-76.563692a745.156923 745.156923 0 0 0 154.387692 21.937231c13.863385 0 27.451077 0 40.723692-1.851077l2.481231-2.796308a296.96 296.96 0 0 1-17.92-95.389538z" fill="#6ECE46" p-id="17572"></path><path d="M1232.620308 643.623385c0-174.395077-174.395077-316.731077-370.412308-316.731077-207.478154 0-370.451692 142.336-370.451692 316.731077 0 174.434462 163.603692 316.731077 370.451692 316.731077a545.161846 545.161846 0 0 0 130.875077-21.937231l118.232615 65.457231-30.877538-108.662154c86.724923-66.048 152.182154-154.348308 152.182154-251.588923z" fill="#e6e6e6" p-id="17573"></path><path d="M599.827692 185.225846a51.554462 51.554462 0 0 1 54.626462 54.626462 51.554462 51.554462 0 0 1-54.665846 54.626461 61.755077 61.755077 0 0 1-65.417846-54.626461 61.755077 61.755077 0 0 1 65.417846-54.626462zM294.439385 294.478769A61.755077 61.755077 0 0 1 228.745846 239.852308a61.755077 61.755077 0 0 1 65.772308-54.626462A51.554462 51.554462 0 0 1 348.790154 239.852308a51.554462 51.554462 0 0 1-54.350769 54.626461z m446.38523 294.833231a46.907077 46.907077 0 0 1-43.52-43.835077 47.261538 47.261538 0 0 1 43.52-43.52A50.018462 50.018462 0 0 1 795.569231 545.476923a49.703385 49.703385 0 0 1-54.665846 43.835077z m240.797539 0a46.631385 46.631385 0 0 1-43.52-43.835077 46.907077 46.907077 0 0 1 43.52-43.52 50.018462 50.018462 0 0 1 54.626461 43.52 49.703385 49.703385 0 0 1-54.626461 43.835077z" fill="#2c2c2c" p-id="17574"></path></svg>